<svg data-v-423bf9ae="" xmlns="http://www.w3.org/2000/svg" viewBox="0 0 464 90" class="iconLeft"><!----><!----><!----><g data-v-423bf9ae="" id="1b704229-a77c-4ad3-b8af-1a49857ade45" fill="white" transform="matrix(4.285714285714286,0,0,4.285714285714286,64.24558846439635,2.100001709801809)"><path d="M4.14 13.65L4.14 13.65Q2.97 13.65 2.14 13.17L2.14 13.17L2.14 13.17Q1.30 12.68 0.87 11.86L0.87 11.86L0.87 11.86Q0.43 11.03 0.43 10.02L0.43 10.02L0.43 10.02Q0.43 9.06 0.83 8.25L0.83 8.25L0.83 8.25Q1.23 7.45 2.00 6.98L2.00 6.98L2.00 6.98Q2.76 6.51 3.79 6.51L3.79 6.51L3.79 6.51Q5.11 6.51 5.93 7.28L5.93 7.28L5.93 7.28Q6.75 8.05 6.75 9.41L6.75 9.41L6.75 9.41Q6.75 9.76 6.69 10.08L6.69 10.08L1.72 10.08L1.72 10.08Q1.85 11.41 2.53 11.97L2.53 11.97L2.53 11.97Q3.22 12.53 4.30 12.53L4.30 12.53L4.30 12.53Q5.38 12.53 6.27 12.12L6.27 12.12L6.44 13.12L6.44 13.12Q5.25 13.65 4.14 13.65L4.14 13.65ZM1.83 9.21L5.45 9.21L5.45 9.21Q5.45 8.47 5.03 8.05L5.03 8.05L5.03 8.05Q4.61 7.63 3.77 7.63L3.77 7.63L3.77 7.63Q2.95 7.63 2.49 8.03L2.49 8.03L2.49 8.03Q2.03 8.43 1.83 9.21L1.83 9.21ZM13.41 6.65L9.59 12.40L13.34 12.40L13.34 13.51L7.48 13.51L11.30 7.76L7.70 7.76L7.70 6.65L13.41 6.65ZM17.91 13.65L17.91 13.65Q16.73 13.65 15.90 13.17L15.90 13.17L15.90 13.17Q15.06 12.68 14.63 11.86L14.63 11.86L14.63 11.86Q14.20 11.03 14.20 10.02L14.20 10.02L14.20 10.02Q14.20 9.06 14.60 8.25L14.60 8.25L14.60 8.25Q14.99 7.45 15.76 6.98L15.76 6.98L15.76 6.98Q16.52 6.51 17.56 6.51L17.56 6.51L17.56 6.51Q18.87 6.51 19.69 7.28L19.69 7.28L19.69 7.28Q20.51 8.05 20.51 9.41L20.51 9.41L20.51 9.41Q20.51 9.76 20.45 10.08L20.45 10.08L15.48 10.08L15.48 10.08Q15.61 11.41 16.30 11.97L16.30 11.97L16.30 11.97Q16.98 12.53 18.06 12.53L18.06 12.53L18.06 12.53Q19.14 12.53 20.03 12.12L20.03 12.12L20.20 13.12L20.20 13.12Q19.01 13.65 17.91 13.65L17.91 13.65ZM15.60 9.21L19.21 9.21L19.21 9.21Q19.21 8.47 18.79 8.05L18.79 8.05L18.79 8.05Q18.37 7.63 17.53 7.63L17.53 7.63L17.53 7.63Q16.72 7.63 16.25 8.03L16.25 8.03L16.25 8.03Q15.79 8.43 15.60 9.21L15.60 9.21ZM26.15 6.65L27.41 6.65L27.41 13.51L26.29 13.51L26.15 12.75L26.15 12.75Q25.82 13.22 25.36 13.43L25.36 13.43L25.36 13.43Q24.91 13.65 24.25 13.65L24.25 13.65L24.25 13.65Q23.02 13.65 22.36 12.90L22.36 12.90L22.36 12.90Q21.71 12.15 21.71 10.64L21.71 10.64L21.71 6.65L22.97 6.65L22.97 10.29L22.97 10.29Q22.97 11.41 23.36 11.97L23.36 11.97L23.36 11.97Q23.74 12.53 24.57 12.53L24.57 12.53L24.57 12.53Q25.06 12.53 25.49 12.33L25.49 12.33L25.49 12.33Q25.91 12.14 26.15 11.76L26.15 11.76L26.15 6.65ZM31.89 17.01L31.89 17.01Q30.44 17.01 29.53 16.48L29.53 16.48L29.53 16.48Q28.63 15.95 28.63 14.97L28.63 14.97L28.63 14.97Q28.63 13.89 29.82 13.36L29.82 13.36L29.82 13.36Q29.15 13.02 29.15 12.49L29.15 12.49L29.15 12.49Q29.15 11.82 29.96 11.49L29.96 11.49L29.96 11.49Q29.39 11.14 29.08 10.54L29.08 10.54L29.08 10.54Q28.77 9.94 28.77 9.18L28.77 9.18L28.77 9.18Q28.77 8.43 29.11 7.82L29.11 7.82L29.11 7.82Q29.46 7.21 30.09 6.86L30.09 6.86L30.09 6.86Q30.73 6.51 31.60 6.51L31.60 6.51L31.60 6.51Q32.52 6.51 33.28 7.04L33.28 7.04L33.28 7.04Q34.02 6.62 34.99 6.62L34.99 6.62L35.10 6.62L34.94 7.46L34.62 7.46L34.62 7.46Q34.50 7.46 34.26 7.49L34.26 7.49L34.26 7.49Q34.02 7.52 33.84 7.56L33.84 7.56L33.84 7.56Q34.13 7.90 34.29 8.32L34.29 8.32L34.29 8.32Q34.44 8.74 34.44 9.18L34.44 9.18L34.44 9.18Q34.44 9.97 34.10 10.59L34.10 10.59L34.10 10.59Q33.75 11.21 33.11 11.57L33.11 11.57L33.11 11.57Q32.47 11.93 31.60 11.93L31.60 11.93L31.60 11.93Q31.09 11.93 30.67 11.80L30.67 11.80L30.67 11.80Q30.35 11.91 30.35 12.17L30.35 12.17L30.35 12.17Q30.35 12.50 31.12 12.61L31.12 12.61L32.96 12.91L32.96 12.91Q34.10 13.09 34.69 13.57L34.69 13.57L34.69 13.57Q35.28 14.04 35.28 14.88L35.28 14.88L35.28 14.88Q35.28 15.93 34.38 16.47L34.38 16.47L34.38 16.47Q33.47 17.01 31.89 17.01L31.89 17.01ZM31.60 10.92L31.60 10.92Q32.38 10.92 32.81 10.45L32.81 10.45L32.81 10.45Q33.24 9.98 33.24 9.20L33.24 9.20L33.24 9.20Q33.24 8.44 32.81 7.98L32.81 7.98L32.81 7.98Q32.38 7.52 31.60 7.52L31.60 7.52L31.60 7.52Q30.81 7.52 30.39 7.98L30.39 7.98L30.39 7.98Q29.97 8.44 29.97 9.20L29.97 9.20L29.97 9.20Q29.97 9.98 30.39 10.45L30.39 10.45L30.39 10.45Q30.81 10.92 31.60 10.92L31.60 10.92ZM32.00 15.89L32.00 15.89Q32.97 15.89 33.49 15.64L33.49 15.64L33.49 15.64Q34.01 15.39 34.01 14.91L34.01 14.91L34.01 14.91Q34.01 14.55 33.69 14.33L33.69 14.33L33.69 14.33Q33.38 14.11 32.75 13.99L32.75 13.99L30.79 13.65L30.79 13.65Q30.37 13.85 30.10 14.13L30.10 14.13L30.10 14.13Q29.83 14.42 29.83 14.77L29.83 14.77L29.83 14.77Q29.83 15.34 30.41 15.62L30.41 15.62L30.41 15.62Q30.98 15.89 32.00 15.89L32.00 15.89ZM37.46 13.51L35.41 6.65L36.89 6.65L38.21 12.12L39.66 6.86L40.96 6.86L42.43 12.12L43.75 6.65L45.23 6.65L43.16 13.51L41.75 13.51L40.32 8.44L38.88 13.51L37.46 13.51ZM47.84 13.65L47.84 13.65Q46.89 13.65 46.30 13.09L46.30 13.09L46.30 13.09Q45.72 12.53 45.72 11.66L45.72 11.66L45.72 11.66Q45.72 10.36 46.96 9.80L46.96 9.80L46.96 9.80Q48.19 9.24 49.83 9.21L49.83 9.21L49.83 9.21Q49.83 8.29 49.47 7.96L49.47 7.96L49.47 7.96Q49.11 7.63 48.33 7.63L48.33 7.63L48.33 7.63Q47.89 7.63 47.46 7.76L47.46 7.76L47.46 7.76Q47.03 7.90 46.52 8.25L46.52 8.25L46.34 7.22L46.34 7.22Q46.76 6.90 47.38 6.71L47.38 6.71L47.38 6.71Q47.99 6.51 48.66 6.51L48.66 6.51L48.66 6.51Q49.55 6.51 50.07 6.82L50.07 6.82L50.07 6.82Q50.60 7.13 50.84 7.84L50.84 7.84L50.84 7.84Q51.09 8.55 51.09 9.80L51.09 9.80L51.09 11.20L51.09 11.20Q51.09 11.76 51.13 12.05L51.13 12.05L51.13 12.05Q51.18 12.33 51.35 12.49L51.35 12.49L51.35 12.49Q51.52 12.64 51.87 12.64L51.87 12.64L52.00 12.64L51.80 13.65L51.70 13.65L51.70 13.65Q51.11 13.65 50.78 13.54L50.78 13.54L50.78 13.54Q50.44 13.43 50.27 13.22L50.27 13.22L50.27 13.22Q50.09 13.01 49.94 12.64L49.94 12.64L49.94 12.64Q49.07 13.65 47.84 13.65L47.84 13.65ZM48.08 12.64L48.08 12.64Q48.58 12.64 49.05 12.39L49.05 12.39L49.05 12.39Q49.52 12.14 49.83 11.72L49.83 11.72L49.83 10.08L49.83 10.08Q48.31 10.14 47.66 10.48L47.66 10.48L47.66 10.48Q47.01 10.82 47.01 11.59L47.01 11.59L47.01 11.59Q47.01 12.12 47.30 12.38L47.30 12.38L47.30 12.38Q47.59 12.64 48.08 12.64L48.08 12.64ZM55.73 17.01L55.73 17.01Q54.28 17.01 53.38 16.48L53.38 16.48L53.38 16.48Q52.47 15.95 52.47 14.97L52.47 14.97L52.47 14.97Q52.47 13.89 53.66 13.36L53.66 13.36L53.66 13.36Q52.99 13.02 52.99 12.49L52.99 12.49L52.99 12.49Q52.99 11.82 53.80 11.49L53.80 11.49L53.80 11.49Q53.23 11.14 52.92 10.54L52.92 10.54L52.92 10.54Q52.61 9.94 52.61 9.18L52.61 9.18L52.61 9.18Q52.61 8.43 52.95 7.82L52.95 7.82L52.95 7.82Q53.30 7.21 53.93 6.86L53.93 6.86L53.93 6.86Q54.57 6.51 55.44 6.51L55.44 6.51L55.44 6.51Q56.36 6.51 57.12 7.04L57.12 7.04L57.12 7.04Q57.86 6.62 58.83 6.62L58.83 6.62L58.94 6.62L58.79 7.46L58.46 7.46L58.46 7.46Q58.34 7.46 58.10 7.49L58.10 7.49L58.10 7.49Q57.86 7.52 57.68 7.56L57.68 7.56L57.68 7.56Q57.97 7.90 58.13 8.32L58.13 8.32L58.13 8.32Q58.28 8.74 58.28 9.18L58.28 9.18L58.28 9.18Q58.28 9.97 57.94 10.59L57.94 10.59L57.94 10.59Q57.60 11.21 56.95 11.57L56.95 11.57L56.95 11.57Q56.31 11.93 55.44 11.93L55.44 11.93L55.44 11.93Q54.94 11.93 54.52 11.80L54.52 11.80L54.52 11.80Q54.19 11.91 54.19 12.17L54.19 12.17L54.19 12.17Q54.19 12.50 54.96 12.61L54.96 12.61L56.80 12.91L56.80 12.91Q57.95 13.09 58.53 13.57L58.53 13.57L58.53 13.57Q59.12 14.04 59.12 14.88L59.12 14.88L59.12 14.88Q59.12 15.93 58.22 16.47L58.22 16.47L58.22 16.47Q57.32 17.01 55.73 17.01L55.73 17.01ZM55.44 10.92L55.44 10.92Q56.22 10.92 56.65 10.45L56.65 10.45L56.65 10.45Q57.08 9.98 57.08 9.20L57.08 9.20L57.08 9.20Q57.08 8.44 56.65 7.98L56.65 7.98L56.65 7.98Q56.22 7.52 55.44 7.52L55.44 7.52L55.44 7.52Q54.66 7.52 54.24 7.98L54.24 7.98L54.24 7.98Q53.82 8.44 53.82 9.20L53.82 9.20L53.82 9.20Q53.82 9.98 54.24 10.45L54.24 10.45L54.24 10.45Q54.66 10.92 55.44 10.92L55.44 10.92ZM55.85 15.89L55.85 15.89Q56.81 15.89 57.33 15.64L57.33 15.64L57.33 15.64Q57.85 15.39 57.85 14.91L57.85 14.91L57.85 14.91Q57.85 14.55 57.53 14.33L57.53 14.33L57.53 14.33Q57.22 14.11 56.59 13.99L56.59 13.99L54.63 13.65L54.63 13.65Q54.21 13.85 53.94 14.13L53.94 14.13L53.94 14.13Q53.68 14.42 53.68 14.77L53.68 14.77L53.68 14.77Q53.68 15.34 54.25 15.62L54.25 15.62L54.25 15.62Q54.82 15.89 55.85 15.89L55.85 15.89ZM63.22 13.65L63.22 13.65Q62.05 13.65 61.21 13.17L61.21 13.17L61.21 13.17Q60.38 12.68 59.95 11.86L59.95 11.86L59.95 11.86Q59.51 11.03 59.51 10.02L59.51 10.02L59.51 10.02Q59.51 9.06 59.91 8.25L59.91 8.25L59.91 8.25Q60.31 7.45 61.07 6.98L61.07 6.98L61.07 6.98Q61.84 6.51 62.87 6.51L62.87 6.51L62.87 6.51Q64.19 6.51 65.01 7.28L65.01 7.28L65.01 7.28Q65.83 8.05 65.83 9.41L65.83 9.41L65.83 9.41Q65.83 9.76 65.77 10.08L65.77 10.08L60.80 10.08L60.80 10.08Q60.93 11.41 61.61 11.97L61.61 11.97L61.61 11.97Q62.30 12.53 63.38 12.53L63.38 12.53L63.38 12.53Q64.46 12.53 65.35 12.12L65.35 12.12L65.52 13.12L65.52 13.12Q64.33 13.65 63.22 13.65L63.22 13.65ZM60.91 9.21L64.53 9.21L64.53 9.21Q64.53 8.47 64.11 8.05L64.11 8.05L64.11 8.05Q63.69 7.63 62.85 7.63L62.85 7.63L62.85 7.63Q62.03 7.63 61.57 8.03L61.57 8.03L61.57 8.03Q61.11 8.43 60.91 9.21L60.91 9.21ZM67.10 13.51L67.10 6.65L68.14 6.65L68.29 7.78L68.29 7.78Q68.82 7.13 69.31 6.82L69.31 6.82L69.31 6.82Q69.79 6.51 70.32 6.51L70.32 6.51L70.32 6.51Q70.49 6.51 70.64 6.55L70.64 6.55L70.52 7.94L70.52 7.94Q70.34 7.90 70.10 7.90L70.10 7.90L70.10 7.90Q69.58 7.90 69.12 8.13L69.12 8.13L69.12 8.13Q68.66 8.36 68.45 8.67L68.45 8.67L68.45 13.51L67.10 13.51ZM71.53 13.51L71.53 6.65L72.56 6.65L72.72 7.78L72.72 7.78Q73.25 7.13 73.73 6.82L73.73 6.82L73.73 6.82Q74.21 6.51 74.75 6.51L74.75 6.51L74.75 6.51Q74.91 6.51 75.07 6.55L75.07 6.55L74.94 7.94L74.94 7.94Q74.76 7.90 74.52 7.90L74.52 7.90L74.52 7.90Q74.00 7.90 73.54 8.13L73.54 8.13L73.54 8.13Q73.08 8.36 72.87 8.67L72.87 8.67L72.87 13.51L71.53 13.51ZM77.55 13.65L77.55 13.65Q76.59 13.65 76.01 13.09L76.01 13.09L76.01 13.09Q75.43 12.53 75.43 11.66L75.43 11.66L75.43 11.66Q75.43 10.36 76.66 9.80L76.66 9.80L76.66 9.80Q77.90 9.24 79.53 9.21L79.53 9.21L79.53 9.21Q79.53 8.29 79.18 7.96L79.18 7.96L79.18 7.96Q78.82 7.63 78.04 7.63L78.04 7.63L78.04 7.63Q77.60 7.63 77.17 7.76L77.17 7.76L77.17 7.76Q76.73 7.90 76.23 8.25L76.23 8.25L76.05 7.22L76.05 7.22Q76.47 6.90 77.08 6.71L77.08 6.71L77.08 6.71Q77.70 6.51 78.37 6.51L78.37 6.51L78.37 6.51Q79.25 6.51 79.78 6.82L79.78 6.82L79.78 6.82Q80.30 7.13 80.55 7.84L80.55 7.84L80.55 7.84Q80.79 8.55 80.79 9.80L80.79 9.80L80.79 11.20L80.79 11.20Q80.79 11.76 80.84 12.05L80.84 12.05L80.84 12.05Q80.89 12.33 81.06 12.49L81.06 12.49L81.06 12.49Q81.23 12.64 81.58 12.64L81.58 12.64L81.70 12.64L81.51 13.65L81.41 13.65L81.41 13.65Q80.82 13.65 80.49 13.54L80.49 13.54L80.49 13.54Q80.15 13.43 79.98 13.22L79.98 13.22L79.98 13.22Q79.80 13.01 79.65 12.64L79.65 12.64L79.65 12.64Q78.78 13.65 77.55 13.65L77.55 13.65ZM77.78 12.64L77.78 12.64Q78.29 12.64 78.76 12.39L78.76 12.39L78.76 12.39Q79.23 12.14 79.53 11.72L79.53 11.72L79.53 10.08L79.53 10.08Q78.02 10.14 77.37 10.48L77.37 10.48L77.37 10.48Q76.72 10.82 76.72 11.59L76.72 11.59L76.72 11.59Q76.72 12.12 77.01 12.38L77.01 12.38L77.01 12.38Q77.29 12.64 77.78 12.64L77.78 12.64ZM82.67 13.51L82.67 6.65L83.71 6.65L83.86 7.78L83.86 7.78Q84.39 7.13 84.88 6.82L84.88 6.82L84.88 6.82Q85.36 6.51 85.89 6.51L85.89 6.51L85.89 6.51Q86.06 6.51 86.21 6.55L86.21 6.55L86.09 7.94L86.09 7.94Q85.90 7.90 85.67 7.90L85.67 7.90L85.67 7.90Q85.15 7.90 84.69 8.13L84.69 8.13L84.69 8.13Q84.22 8.36 84.01 8.67L84.01 8.67L84.01 13.51L82.67 13.51ZM91.91 3.01L93.17 3.01L93.17 13.51L92.05 13.51L91.91 12.67L91.91 12.67Q91.56 13.15 91.00 13.40L91.00 13.40L91.00 13.40Q90.44 13.65 89.81 13.65L89.81 13.65L89.81 13.65Q88.94 13.65 88.23 13.17L88.23 13.17L88.23 13.17Q87.51 12.70 87.10 11.89L87.10 11.89L87.10 11.89Q86.69 11.07 86.69 10.09L86.69 10.09L86.69 10.09Q86.69 9.14 87.07 8.32L87.07 8.32L87.07 8.32Q87.46 7.49 88.17 7L88.17 7L88.17 7Q88.89 6.51 89.81 6.51L89.81 6.51L89.81 6.51Q90.43 6.51 90.97 6.73L90.97 6.73L90.97 6.73Q91.52 6.96 91.91 7.42L91.91 7.42L91.91 3.01ZM90.03 12.53L90.03 12.53Q90.54 12.53 91.00 12.27L91.00 12.27L91.00 12.27Q91.46 12.01 91.76 11.47L91.76 11.47L91.76 11.47Q92.05 10.92 92.05 10.09L92.05 10.09L92.05 10.09Q92.05 9.32 91.76 8.76L91.76 8.76L91.76 8.76Q91.46 8.20 90.99 7.92L90.99 7.92L90.99 7.92Q90.52 7.63 90.03 7.63L90.03 7.63L90.03 7.63Q89.08 7.63 88.53 8.32L88.53 8.32L88.53 8.32Q87.98 9.02 87.98 10.09L87.98 10.09L87.98 10.09Q87.98 11.13 88.54 11.83L88.54 11.83L88.54 11.83Q89.10 12.53 90.03 12.53L90.03 12.53Z"></path></g><!----><g data-v-423bf9ae="" id="77d18357-4163-449b-8620-0d574f4879cd" transform="matrix(2.8125,0,0,2.8125,-21.194407999515533,0)" stroke="none" fill="white"><path d="M18.396 26.495L7.807 15.905 18.432 5.28l.707.707-9.918 9.918 9.882 9.883z"></path><path d="M23.194 1v4.194H19V1h4.194m1-1H18v6.194h6.194V0zM23.194 26.806V31H19v-4.194h4.194m1-1H18V32h6.194v-6.194z"></path></g><!----></svg>